<?xml version="1.0" encoding="UTF-8" standalone="no"?>
<!-- Created with Inkscape (http://www.inkscape.org/) -->

<svg
   width="198.54501mm"
   height="320.25339mm"
   viewBox="0 0 198.54502 320.25338"
   version="1.1"
   id="svg1"
   xml:space="preserve"
   inkscape:version="1.4.4 (dcaf3e7, 2026-05-05)"
   sodipodi:docname="LOGO.svg"
   xmlns:inkscape="http://www.inkscape.org/namespaces/inkscape"
   xmlns:sodipodi="http://sodipodi.sourceforge.net/DTD/sodipodi-0.dtd"
   xmlns="http://www.w3.org/2000/svg"
   xmlns:svg="http://www.w3.org/2000/svg"><sodipodi:namedview
     id="namedview1"
     pagecolor="#ffffff"
     bordercolor="#000000"
     borderopacity="0.25"
     inkscape:showpageshadow="2"
     inkscape:pageopacity="0.0"
     inkscape:pagecheckerboard="0"
     inkscape:deskcolor="#d1d1d1"
     inkscape:document-units="mm"
     inkscape:zoom="0.3066567"
     inkscape:cx="383.16462"
     inkscape:cy="805.46096"
     inkscape:window-width="931"
     inkscape:window-height="1045"
     inkscape:window-x="779"
     inkscape:window-y="34"
     inkscape:window-maximized="0"
     inkscape:current-layer="layer1" /><defs
     id="defs1" /><g
     inkscape:label="Layer 1"
     inkscape:groupmode="layer"
     id="layer1"
     transform="translate(-16.253813,114.16896)"><g
       id="g1"><path
         style="fill:#b9b9b9;fill-opacity:1"
         d="m 107.15625,205.87678 c 0.24253,-0.0979 0.63941,-0.0979 0.88194,0 0.24254,0.0979 0.0441,0.17794 -0.44097,0.17794 -0.48507,0 -0.68351,-0.0801 -0.44097,-0.17794 z m 14.46389,0 c 0.24253,-0.0979 0.63941,-0.0979 0.88194,0 0.24254,0.0979 0.0441,0.17794 -0.44097,0.17794 -0.48507,0 -0.68351,-0.0801 -0.44097,-0.17794 z m -15.50018,-9.53235 c 0.25466,-0.10191 0.55894,-0.0894 0.67616,0.0279 0.11723,0.11723 -0.0911,0.2006 -0.46302,0.18529 -0.41097,-0.0169 -0.49456,-0.10052 -0.21314,-0.21314 z m 72.69337,-24.71804 c -0.43881,-0.55953 -0.42633,-0.572 0.13319,-0.13319 0.33955,0.26629 0.61737,0.5441 0.61737,0.61736 0,0.29035 -0.2897,0.10347 -0.75056,-0.48417 z M 16.255627,-12.817591 c 0.01693,-0.410966 0.10052,-0.494559 0.213136,-0.213137 0.101907,0.254662 0.08937,0.558932 -0.02785,0.676158 -0.117225,0.117225 -0.200603,-0.09113 -0.185286,-0.463021 z m 0.04092,-6.67338 c 0.0072,-0.582083 0.08625,-0.777499 0.175698,-0.434258 0.08945,0.343241 0.08356,0.819491 -0.01307,1.058333 -0.09663,0.238842 -0.169816,-0.04199 -0.162627,-0.624075 z"
         id="path7" /><path
         style="fill:#a3a3a3;fill-opacity:1"
         d="m 108.58941,205.86943 c 0.25466,-0.10191 0.55893,-0.0894 0.67615,0.0279 0.11723,0.11723 -0.0911,0.2006 -0.46302,0.18529 -0.41096,-0.0169 -0.49456,-0.10052 -0.21313,-0.21314 z m 11.99444,0 c 0.25466,-0.10191 0.55893,-0.0894 0.67616,0.0279 0.11722,0.11723 -0.0911,0.2006 -0.46302,0.18529 -0.41097,-0.0169 -0.49456,-0.10052 -0.21314,-0.21314 z m 74.21825,-28.5104 c 0.007,-0.58209 0.0863,-0.7775 0.1757,-0.43426 0.0894,0.34324 0.0836,0.81949 -0.0131,1.05833 -0.0966,0.23885 -0.16982,-0.042 -0.16263,-0.62407 z M 40.92222,166.77569 c 0.455699,-0.48506 0.907919,-0.88194 1.004933,-0.88194 0.09701,0 -0.196456,0.39688 -0.652155,0.88194 -0.455699,0.48507 -0.907919,0.88195 -1.004933,0.88195 -0.09701,0 0.196456,-0.39688 0.652155,-0.88195 z M 16.309621,-14.375693 c 0,-0.679097 0.0726,-0.95691 0.161333,-0.617361 0.08873,0.339548 0.08873,0.895173 0,1.234722 -0.08873,0.339549 -0.161333,0.06174 -0.161333,-0.617361 z m 20.832943,-0.881945 c 0.0026,-0.970138 0.07116,-1.325143 0.152247,-0.788899 0.08109,0.536244 0.07892,1.329994 -0.0048,1.763889 -0.08374,0.433895 -0.150081,-0.0049 -0.147432,-0.97499 z M 16.31674,-17.374304 c 0.0039,-0.776111 0.07616,-1.052073 0.160542,-0.613248 0.08438,0.438824 0.08118,1.073824 -0.0071,1.411111 -0.0883,0.337286 -0.157337,-0.02175 -0.153422,-0.797863 z m 41.186036,-50.051249 c 0,-0.07326 0.277812,-0.351068 0.617361,-0.617361 0.559525,-0.43881 0.572003,-0.426332 0.133193,0.133193 -0.460858,0.587639 -0.750554,0.774517 -0.750554,0.484168 z"
         id="path6" /><path
         style="fill:#8c8c8c;fill-opacity:1"
         d="m 109.80208,205.86724 c 0.33955,-0.0887 0.89517,-0.0887 1.23472,0 0.33955,0.0887 0.0617,0.16133 -0.61736,0.16133 -0.6791,0 -0.95691,-0.0726 -0.61736,-0.16133 z m 9.34861,0.01 c 0.24254,-0.0979 0.63941,-0.0979 0.88195,0 0.24253,0.0979 0.0441,0.17794 -0.44098,0.17794 -0.48507,0 -0.6835,-0.0801 -0.44097,-0.17794 z M 41.582777,187.85417 c -0.43881,-0.55953 -0.426332,-0.57201 0.133193,-0.1332 0.587639,0.46086 0.774516,0.75056 0.484168,0.75056 -0.07326,0 -0.351069,-0.27781 -0.617361,-0.61736 z m 148.365863,-20.99028 -1.03614,-1.14653 1.14652,1.03614 c 1.06873,0.96583 1.30869,1.25692 1.03615,1.25692 -0.0607,0 -0.57666,-0.51594 -1.14653,-1.14653 z M 37.097366,-12.964582 c 0,-0.485069 0.08007,-0.683507 0.177936,-0.440972 0.09786,0.242534 0.09786,0.639409 0,0.881944 -0.09786,0.242535 -0.177936,0.0441 -0.177936,-0.440972 z m 0,-4.586111 c 0,-0.48507 0.08007,-0.683507 0.177936,-0.440972 0.09786,0.242534 0.09786,0.639409 0,0.881944 -0.09786,0.242535 -0.177936,0.0441 -0.177936,-0.440972 z m 133.459644,-53.004861 -2.10562,-2.204861 2.20486,2.105623 c 1.21267,1.158093 2.20486,2.150281 2.20486,2.204862 0,0.260668 -0.34816,-0.0575 -2.3041,-2.105624 z m 13.90077,-15.698611 c -0.43881,-0.559525 -0.42634,-0.572003 0.13319,-0.133193 0.33955,0.266292 0.61736,0.544105 0.61736,0.617361 0,0.290348 -0.2897,0.103471 -0.75055,-0.484168 z m -63.87393,-27.845845 c 0.25466,-0.10191 0.55893,-0.0894 0.67616,0.0279 0.11722,0.11722 -0.0911,0.2006 -0.46302,0.18528 -0.41097,-0.0169 -0.49456,-0.10052 -0.21314,-0.21313 z"
         id="path5" /><path
         style="fill:#767676;fill-opacity:1"
         d="m 113.34274,205.84933 c 1.12274,-0.0702 2.86899,-0.0696 3.88055,0.001 1.01157,0.071 0.093,0.12847 -2.04135,0.12767 -2.1343,-7.9e-4 -2.96194,-0.0589 -1.8392,-0.12912 z m -11.45611,-0.33268 c 0.25466,-0.10191 0.55893,-0.0894 0.67616,0.0279 0.11722,0.11723 -0.0911,0.20061 -0.46302,0.18529 -0.41097,-0.0169 -0.49456,-0.10052 -0.21314,-0.21314 z m 76.61892,-22.82276 c 0,-0.0733 0.27782,-0.35107 0.61736,-0.61736 0.55953,-0.43881 0.57201,-0.42633 0.1332,0.13319 -0.46086,0.58764 -0.75056,0.77452 -0.75056,0.48417 z M 61.356631,41.45139 l -0.855244,-0.970139 0.970138,0.855244 c 0.906741,0.799355 1.131919,1.085034 0.855245,1.085034 -0.06319,0 -0.499755,-0.436563 -0.970139,-0.970139 z m -1.782188,-1.763889 c -0.438809,-0.559525 -0.426332,-0.572003 0.133194,-0.133193 0.587638,0.460858 0.774516,0.750554 0.484168,0.750554 -0.07326,0 -0.351069,-0.277812 -0.617362,-0.617361 z M 37.069515,-18.814813 c 0.01693,-0.410966 0.100521,-0.494559 0.213137,-0.213137 0.101907,0.254661 0.08937,0.558932 -0.02785,0.676157 -0.117225,0.117225 -0.200604,-0.09113 -0.185286,-0.46302 z m 148.998565,-65.851852 -1.03614,-1.146528 1.14653,1.036141 c 0.63059,0.569877 1.14653,1.085814 1.14653,1.146527 0,0.272543 -0.29109,0.03259 -1.25692,-1.03614 z M 47.624998,-86.82833 c 0,-0.07326 0.277812,-0.351069 0.617361,-0.617361 0.559525,-0.43881 0.572003,-0.426333 0.133193,0.133193 -0.460858,0.587639 -0.750554,0.774516 -0.750554,0.484168 z m 67.645142,-6.818552 c 0.43656,-0.08409 1.15093,-0.08409 1.5875,0 0.43656,0.08409 0.0794,0.152883 -0.79375,0.152883 -0.87313,0 -1.23032,-0.0688 -0.79375,-0.152883 z m -4.21129,-20.453128 c 0.25466,-0.10191 0.55893,-0.0894 0.67616,0.0279 0.11722,0.11722 -0.0911,0.2006 -0.46302,0.18528 -0.41097,-0.0169 -0.49456,-0.10052 -0.21314,-0.21313 z"
         id="path4" /><path
         style="fill:#606060;fill-opacity:1"
         d="m 114.56458,63.685775 c 0.63059,-0.07825 1.66247,-0.07825 2.29306,0 0.63059,0.07826 0.11465,0.142283 -1.14653,0.142283 -1.26118,0 -1.77712,-0.06403 -1.14653,-0.142283 z m 55.12153,-22.080189 c 0,-0.06071 0.51594,-0.57665 1.14653,-1.146528 l 1.14652,-1.03614 -1.03614,1.146528 c -0.96582,1.068724 -1.25691,1.308682 -1.25691,1.03614 z M 37.069515,-11.40648 c 0.01693,-0.410966 0.100521,-0.494559 0.213137,-0.213137 0.101907,0.254662 0.08937,0.558933 -0.02785,0.676158 -0.117225,0.117225 -0.200604,-0.09113 -0.185286,-0.463021 z m 177.447225,-0.352778 c 0.0169,-0.410966 0.10052,-0.494559 0.21313,-0.213137 0.10191,0.254662 0.0894,0.558933 -0.0279,0.676158 -0.11722,0.117225 -0.2006,-0.09113 -0.18528,-0.463021 z m 0,-8.466667 c 0.0169,-0.410966 0.10052,-0.494559 0.21313,-0.213136 0.10191,0.254661 0.0894,0.558932 -0.0279,0.676157 -0.11722,0.117225 -0.2006,-0.09113 -0.18528,-0.463021 z M 44.09722,-83.300553 c 0,-0.07326 0.277813,-0.351068 0.617361,-0.617361 0.559525,-0.43881 0.572003,-0.426332 0.133193,0.133193 -0.460858,0.587639 -0.750554,0.774517 -0.750554,0.484168 z m 69.40903,-10.331 c 0.24253,-0.09786 0.63941,-0.09786 0.88194,0 0.24254,0.09786 0.0441,0.177936 -0.44097,0.177936 -0.48507,0 -0.68351,-0.08007 -0.44097,-0.177936 z m 4.25538,-0.0073 c 0.25466,-0.101908 0.55893,-0.08938 0.67616,0.02785 0.11722,0.117226 -0.0911,0.200604 -0.46302,0.185286 -0.41097,-0.01693 -0.49456,-0.10052 -0.21314,-0.213136 z m -5.66649,-20.453757 c 0.24253,-0.0979 0.63941,-0.0979 0.88194,0 0.24254,0.0979 0.0441,0.17793 -0.44097,0.17793 -0.48507,0 -0.68351,-0.0801 -0.44097,-0.17793 z m 6.72482,-0.007 c 0.25466,-0.10191 0.55894,-0.0894 0.67616,0.0279 0.11723,0.11722 -0.0911,0.2006 -0.46302,0.18528 -0.41097,-0.0169 -0.49456,-0.10052 -0.21314,-0.21313 z"
         id="path3" /><path
         style="fill:#494949;fill-opacity:1"
         d="m 103.29774,205.51665 c 0.25466,-0.10191 0.55893,-0.0894 0.67616,0.0279 0.11722,0.11723 -0.0911,0.20061 -0.46302,0.18529 -0.41097,-0.0169 -0.49456,-0.10052 -0.21314,-0.21314 z m 22.93056,0 c 0.25466,-0.10191 0.55893,-0.0894 0.67615,0.0279 0.11723,0.11723 -0.0911,0.20061 -0.46302,0.18529 -0.41096,-0.0169 -0.49456,-0.10052 -0.21313,-0.21314 z m -12.19289,-8.83776 c 0.92164,-0.0727 2.42976,-0.0727 3.35139,0 0.92163,0.0727 0.16757,0.13213 -1.67569,0.13213 -1.84327,0 -2.59733,-0.0595 -1.6757,-0.13213 z m -62.203779,-14.46917 -0.855244,-0.97014 0.970139,0.85525 c 0.90674,0.79935 1.131918,1.08503 0.855244,1.08503 -0.06319,0 -0.499755,-0.43656 -0.970139,-0.97014 z m 0.203089,-11.0243 c 0.351185,-0.38806 0.717894,-0.70556 0.814908,-0.70556 0.09701,0 -0.110945,0.3175 -0.46213,0.70556 -0.351186,0.38805 -0.717894,0.70555 -0.814908,0.70555 -0.09701,0 0.110945,-0.3175 0.46213,-0.70555 z M 112.82274,63.699986 c 0.25466,-0.101907 0.55893,-0.08938 0.67616,0.02785 0.11722,0.117225 -0.0911,0.200603 -0.46302,0.185285 -0.41097,-0.01693 -0.49456,-0.10052 -0.21314,-0.213135 z m 5.26962,0.0073 c 0.24253,-0.09786 0.63941,-0.09786 0.88194,0 0.24254,0.09786 0.0441,0.177936 -0.44097,0.177936 -0.48507,0 -0.68351,-0.08007 -0.44097,-0.177936 z m 54.23958,-24.813584 c 0.35119,-0.388055 0.7179,-0.705555 0.81491,-0.705555 0.097,0 -0.11095,0.3175 -0.46213,0.705555 -0.35119,0.388056 -0.71789,0.705556 -0.81491,0.705556 -0.097,0 0.11095,-0.3175 0.46213,-0.705556 z M 16.608404,-10.348147 c 0.01693,-0.410966 0.100521,-0.494559 0.213137,-0.213136 0.101907,0.254661 0.08937,0.558932 -0.02785,0.676157 -0.117225,0.1172251 -0.200604,-0.091134 -0.185287,-0.463021 z m 197.936186,-2.616435 c 0,-0.485069 0.0801,-0.683507 0.17793,-0.440972 0.0979,0.242534 0.0979,0.639409 0,0.881944 -0.0979,0.242535 -0.17793,0.0441 -0.17793,-0.440972 z m -20.41592,-1.940278 c 0.003,-0.970139 0.0712,-1.325143 0.15225,-0.788899 0.0811,0.536244 0.0789,1.329994 -0.005,1.763889 -0.0837,0.433894 -0.15008,-0.0049 -0.14744,-0.97499 z m 20.38807,-4.262731 c 0.0169,-0.410966 0.10052,-0.494559 0.21313,-0.213137 0.10191,0.254662 0.0894,0.558932 -0.0279,0.676158 -0.11722,0.117225 -0.2006,-0.09114 -0.18528,-0.463021 z M 59.619442,-69.894997 c 0,-0.07326 0.277813,-0.351069 0.617361,-0.617361 0.559525,-0.43881 0.572003,-0.426332 0.133193,0.133193 -0.460858,0.587639 -0.750554,0.774516 -0.750554,0.484168 z M 45.68472,-84.931248 c 0.351185,-0.388056 0.717894,-0.705556 0.814908,-0.705556 0.09701,0 -0.110945,0.3175 -0.46213,0.705556 -0.351186,0.388055 -0.717894,0.705555 -0.814908,0.705555 -0.09701,0 0.110945,-0.3175 0.46213,-0.705555 z m 66.78524,-8.707654 c 0.25466,-0.101908 0.55894,-0.08938 0.67616,0.02785 0.11723,0.117226 -0.0911,0.200604 -0.46302,0.185286 -0.41097,-0.01693 -0.49456,-0.10052 -0.21314,-0.213136 z m 6.35,0 c 0.25466,-0.101908 0.55894,-0.08938 0.67616,0.02785 0.11723,0.117226 -0.0911,0.200604 -0.46302,0.185286 -0.41097,-0.01693 -0.49456,-0.10052 -0.21314,-0.213136 z m -5.29166,-20.461108 c 0.25466,-0.10191 0.55893,-0.0894 0.67615,0.0279 0.11723,0.11722 -0.0911,0.2006 -0.46302,0.18528 -0.41096,-0.0169 -0.49456,-0.10052 -0.21313,-0.21313 z m 3.8585,0.007 c 0.24254,-0.0979 0.63941,-0.0979 0.88195,0 0.24253,0.0979 0.0441,0.17793 -0.44097,0.17793 -0.48507,0 -0.68351,-0.0801 -0.44098,-0.17793 z"
         id="path2" /><path
         style="fill:#333333;fill-opacity:1"
         d="m 102.12916,205.53792 c -15.163952,-0.94518 -32.160344,-4.10693 -42.518604,-7.90951 -5.040633,-1.85044 -11.010187,-4.81287 -14.37457,-7.13346 -11.558818,-7.97274 -11.665877,-18.80784 -0.263719,-26.69015 6.66304,-4.60616 17.153543,-8.57005 28.934675,-10.93313 3.753486,-0.75288 15.361085,-2.49629 16.636316,-2.4987 0.595005,-0.001 1.237738,0.81365 2.9422,3.72974 1.199485,2.05215 2.126893,3.77992 2.060906,3.83949 -0.06599,0.0596 -2.739353,0.44902 -5.940811,0.86546 -12.962054,1.68606 -23.791883,4.49551 -30.766177,7.98128 -6.437299,3.21738 -9.450489,6.4935 -9.450489,10.27516 0,7.21713 15.149783,14.32825 37.747222,17.71808 17.070651,2.56076 38.632961,2.56442 56.257351,0.01 19.07025,-2.76446 33.406,-8.28667 37.25074,-14.34919 1.26019,-1.98712 1.39141,-4.35593 0.35395,-6.38953 -2.33124,-4.56961 -11.07472,-9.23931 -22.86926,-12.21398 -3.85168,-0.97143 -13.52679,-2.66713 -19.23009,-3.37036 l -3.44703,-0.42503 0.94177,-1.6312 c 0.51797,-0.89716 1.51351,-2.62035 2.21231,-3.8293 1.46503,-2.53459 1.11953,-2.4506 6.81466,-1.65667 20.70772,2.88676 36.63717,8.55374 44.23054,15.73524 3.29042,3.11194 5.08228,6.8213 5.08228,10.52092 0,13.2098 -22.91642,24.02497 -58.7375,27.72056 -5.03158,0.5191 -28.62698,0.96132 -33.86667,0.63472 z m 11.64167,-30.41989 c -1.32542,-0.6219 -1.91795,-1.53799 -9.7574,-15.08556 C 96.046295,146.26425 83.202889,124.09801 79.712789,118.09236 78.810737,116.54014 72.31482,105.34826 65.277419,93.221529 47.061561,61.832256 45.547732,59.225051 39.263458,48.418751 28.564381,30.020853 27.409681,27.879055 24.238301,20.549307 c -7.222234,-16.6921568 -9.332648,-34.44266 -6.228516,-52.3875 2.67666,-15.473646 10.200851,-32.003443 20.313465,-44.626389 3.139353,-3.918659 9.71692,-10.668302 13.71147,-14.070175 19.296039,-16.433063 43.663621,-24.656153 69.05625,-23.303743 13.32997,0.70996 25.27961,3.76034 37.12986,9.47813 22.81623,11.008929 40.32195,29.691241 49.52704,52.855841 8.28865,20.858383 9.16158,42.9274499 2.50672,63.373553 -3.5254,10.831258 -5.3837,14.392151 -26.80623,51.366394 -1.29281,2.231319 -3.63288,6.279444 -5.20015,8.995833 -3.27562,5.67728 -20.05939,34.553629 -24.50285,42.156949 -8.1931,14.01943 -16.43816,28.23282 -23.12469,39.86388 -4.07134,7.08202 -8.3438,14.50495 -9.49435,16.49541 -1.15055,1.99046 -2.4112,3.84265 -2.80144,4.11599 -1.25025,0.87571 -3.01945,0.9746 -4.55405,0.25455 z M 126.20409,63.054006 c 21.46317,-3.097291 41.67802,-15.668573 53.88287,-33.508866 10.13346,-14.812467 15.06961,-32.2577697 13.92469,-49.2125 -0.94465,-13.988957 -5.19869,-26.578602 -12.9336,-38.276388 -17.23436,-26.064169 -47.16063,-39.496259 -77.36139,-34.722845 -8.566415,1.353976 -15.431169,3.574042 -23.034828,7.449482 C 68.696631,-79.108483 57.94714,-69.596493 50.657576,-58.649304 40.125853,-42.833164 35.491917,-24.547071 37.560144,-6.9651981 41.204486,24.015138 62.33076,50.07902 91.72222,59.855576 c 11.32545,3.767212 23.0221,4.852157 34.48187,3.19843 z"
         id="path1" /></g></g></svg>
